<svg width="76" height="74" viewBox="0 0 76 74" fill="none" xmlns="http://www.w3.org/2000/svg">
<path d="M30.8015 0.534631L53.0055 17.02L75.2108 33.5053L49.8309 44.492L24.4521 55.4786L27.6268 28.0066L30.8015 0.534631Z" fill="#28B7BC"/>
<path d="M0.687956 33.3894L0 32.7014L32.7013 1.45346e-05L33.3893 0.688035L0.687956 33.3894Z" fill="#3E3B5A"/>
<path d="M0.874479 38.8267L0.186523 38.1386L32.8878 5.43734L33.5758 6.12536L0.874479 38.8267Z" fill="#3E3B5A"/>
<path d="M3.55618 41.4507L2.86816 40.7627L35.5682 8.06136L36.2562 8.75069L3.55618 41.4507Z" fill="#3E3B5A"/>
<path d="M3.74271 46.8894L3.05469 46.2014L35.7561 13.4987L36.444 14.188L3.74271 46.8894Z" fill="#3E3B5A"/>
<path d="M2.21569 53.3228L1.52637 52.6347L34.2277 19.9334L34.9157 20.6214L2.21569 53.3228Z" fill="#3E3B5A"/>
<path d="M2.40286 58.76L1.71484 58.072L34.4161 25.3707L35.1042 26.0587L2.40286 58.76Z" fill="#3E3B5A"/>
<path d="M5.08249 61.384L4.39453 60.696L37.0958 27.9947L37.7839 28.6827L5.08249 61.384Z" fill="#3E3B5A"/>
<path d="M6.36283 65.728L5.6748 65.04L39.6428 31.072L40.3309 31.76L6.36283 65.728Z" fill="#3E3B5A"/>
<path d="M13.5904 65.1987L12.8931 64.5214L49.8011 26.4934L50.4984 27.1707L13.5904 65.1987Z" fill="#3E3B5A"/>
<path d="M17.9799 65.3147L17.292 64.6267L49.9933 31.9254L50.6813 32.6133L17.9799 65.3147Z" fill="#3E3B5A"/>
<path d="M20.6615 67.9387L19.9722 67.2508L52.6735 34.5494L53.3615 35.2387L20.6615 67.9387Z" fill="#3E3B5A"/>
<path d="M20.8466 73.3773L20.1587 72.6894L52.8614 39.9867L53.5493 40.676L20.8466 73.3773Z" fill="#3E3B5A"/>
</svg>
